<?xml version="1.0" encoding="utf-8"?>
<!-- Generator: Adobe Illustrator 21.1.0, SVG Export Plug-In . SVG Version: 6.00 Build 0)  -->
<svg version="1.1" id="Layer_1" xmlns="http://www.w3.org/2000/svg" xmlns:xlink="http://www.w3.org/1999/xlink" x="0px" y="0px"
	 viewBox="0 0 512 512" style="enable-background:new 0 0 512 512;" xml:space="preserve">
<style type="text/css">
	.st0{fill:#FFFFFF;stroke:#000000;stroke-miterlimit:10;}
</style>
<g>
	<g>
		<g>
			<path class="st0" d="M281.6,119.5c-4.7,0-8.5,3.8-8.5,8.5v51.2c0,4.7,3.8,8.5,8.5,8.5h34.1c4.7,0,8.5-3.8,8.5-8.5V128
				c0-4.7-3.8-8.5-8.5-8.5H281.6z M307.2,170.7h-17.1v-34.1h17.1V170.7z"/>
			<path class="st0" d="M59.7,221.9c4.7,0,8.5-3.8,8.5-8.5v-128h375.5v128c0,4.7,3.8,8.5,8.5,8.5s8.5-3.8,8.5-8.5V76.8
				c0-4.7-3.8-8.5-8.5-8.5H256V17.1h42.7v17.1h-25.6c-4.7,0-8.5,3.8-8.5,8.5s3.8,8.5,8.5,8.5h34.1c4.7,0,8.5-3.8,8.5-8.5V8.5
				c0-4.7-3.8-8.5-8.5-8.5h-59.7c-4.7,0-8.5,3.8-8.5,8.5v59.7H59.7c-4.7,0-8.5,3.8-8.5,8.5v136.5C51.2,218,55,221.9,59.7,221.9z"/>
			<path class="st0" d="M366.9,119.5c-4.7,0-8.5,3.8-8.5,8.5v51.2c0,4.7,3.8,8.5,8.5,8.5h34.1c4.7,0,8.5-3.8,8.5-8.5V128
				c0-4.7-3.8-8.5-8.5-8.5H366.9z M392.5,170.7h-17.1v-34.1h17.1V170.7z"/>
			<path class="st0" d="M503.5,494.9H8.5c-4.7,0-8.5,3.8-8.5,8.5s3.8,8.5,8.5,8.5h494.9c4.7,0,8.5-3.8,8.5-8.5
				S508.2,494.9,503.5,494.9z"/>
			<path class="st0" d="M315.7,443.7c4.7,0,8.5-3.8,8.5-8.5V315.7c0-2.3-0.9-4.4-2.5-6c-0.8-0.8-20.1-19.6-65.8-19.6
				s-65,18.8-65.8,19.6c-1.6,1.6-2.5,3.8-2.5,6v119.5c0,4.7,3.8,8.5,8.5,8.5s8.5-3.8,8.5-8.5V319.9c5.2-3.6,18.7-10.9,42.7-12.3v85
				c-4.7,0-8.5,3.8-8.5,8.5s3.8,8.5,8.5,8.5v25.6c0,4.7,3.8,8.5,8.5,8.5s8.5-3.8,8.5-8.5v-25.6c4.7,0,8.5-3.8,8.5-8.5
				s-3.8-8.5-8.5-8.5v-85c24,1.5,37.5,8.8,42.7,12.3v115.3C307.2,439.9,311,443.7,315.7,443.7z"/>
			<path class="st0" d="M153.6,469.3c0,4.7,3.8,8.5,8.5,8.5h187.7c4.7,0,8.5-3.8,8.5-8.5s-3.8-8.5-8.5-8.5H162.1
				C157.4,460.8,153.6,464.6,153.6,469.3z"/>
			<path class="st0" d="M42.7,460.8c-4.7,0-8.5,3.8-8.5,8.5s3.8,8.5,8.5,8.5H128c4.7,0,8.5-3.8,8.5-8.5s-3.8-8.5-8.5-8.5h-8.5V256
				h273.1v204.8H384c-4.7,0-8.5,3.8-8.5,8.5s3.8,8.5,8.5,8.5h85.3c4.7,0,8.5-3.8,8.5-8.5s-3.8-8.5-8.5-8.5h-8.5V256h8.5
				c4.7,0,8.5-3.8,8.5-8.5s-3.8-8.5-8.5-8.5H42.7c-4.7,0-8.5,3.8-8.5,8.5s3.8,8.5,8.5,8.5h8.5v204.8H42.7z M409.6,256h34.1v204.8
				h-34.1V256z M68.3,256h34.1v204.8H68.3V256z"/>
			<path class="st0" d="M110.9,119.5c-4.7,0-8.5,3.8-8.5,8.5v51.2c0,4.7,3.8,8.5,8.5,8.5h34.1c4.7,0,8.5-3.8,8.5-8.5V128
				c0-4.7-3.8-8.5-8.5-8.5H110.9z M136.5,170.7h-17.1v-34.1h17.1V170.7z"/>
			<path class="st0" d="M196.3,119.5c-4.7,0-8.5,3.8-8.5,8.5v51.2c0,4.7,3.8,8.5,8.5,8.5h34.1c4.7,0,8.5-3.8,8.5-8.5V128
				c0-4.7-3.8-8.5-8.5-8.5H196.3z M221.9,170.7h-17.1v-34.1h17.1V170.7z"/>
		</g>
	</g>
</g>
</svg>
